<?xml version="1.0" encoding="UTF-8" standalone="no"?>
<svg
   xmlns:dc="http://purl.org/dc/elements/1.1/"
   xmlns:cc="http://creativecommons.org/ns#"
   xmlns:rdf="http://www.w3.org/1999/02/22-rdf-syntax-ns#"
   xmlns:svg="http://www.w3.org/2000/svg"
   xmlns="http://www.w3.org/2000/svg"
   xmlns:sodipodi="http://sodipodi.sourceforge.net/DTD/sodipodi-0.dtd"
   xmlns:inkscape="http://www.inkscape.org/namespaces/inkscape"
   viewBox="0 0 64 64"
   id="svg2"
   version="1.1"
   inkscape:version="0.91 r13725"
   sodipodi:docname="icon.svg">
  <metadata
     id="metadata12">
    <rdf:RDF>
      <cc:Work
         rdf:about="">
        <dc:format>image/svg+xml</dc:format>
        <dc:type
           rdf:resource="http://purl.org/dc/dcmitype/StillImage" />
        <dc:title />
      </cc:Work>
    </rdf:RDF>
  </metadata>
  <defs
     id="defs10" />
  <sodipodi:namedview
     pagecolor="#ffffff"
     bordercolor="#666666"
     borderopacity="1"
     objecttolerance="10"
     gridtolerance="10"
     guidetolerance="10"
     inkscape:pageopacity="0"
     inkscape:pageshadow="2"
     inkscape:window-width="1366"
     inkscape:window-height="709"
     id="namedview8"
     showgrid="false"
     showguides="true"
     inkscape:guide-bbox="true"
     inkscape:zoom="7.375"
     inkscape:cx="56.84434"
     inkscape:cy="31.538085"
     inkscape:window-x="0"
     inkscape:window-y="27"
     inkscape:window-maximized="1"
     inkscape:current-layer="svg2" />
  <path
     inkscape:connector-curvature="0"
     d="M 13.925723,2.1076328 2.1610171,16.225279 l 23.5294119,0 0,-14.1176462 z m 16.470588,0 0,14.1176462 23.529411,0 L 42.161017,2.1076328 M 2.1610171,20.931162 l 0,32.941176 32.3482349,0 c -0.328235,-0.601177 -0.583529,-1.302353 -0.583529,-2.22 l 0,-2.615294 c 0,-2.284706 1.429411,-3.541177 2.422352,-4.131765 -0.04353,-0.105882 -0.11647,-0.127059 -0.15647,-0.243529 -0.367059,-1.074118 -0.564706,-3.510588 1.304706,-5.221177 l 1.82,-1.732941 0.0094,0 c 1.847059,-1.738823 3.855295,-1.401176 4.84353,-1.098823 0.21647,0.06588 0.289412,0.202353 0.472941,0.28 0.06471,-0.147059 0.02118,-0.258824 0.105882,-0.414118 0.531765,-0.976471 1.929412,-2.605882 4.324706,-2.605882 l 2.647059,0 c 0.882353,0 1.587059,0.26 2.205882,0.588235 l 0,-13.529412 z"
     style="fill:#1a1a1a"
     id="path3372" />
  <g
     transform="matrix(1.3636364,0,0,1.3636364,-28.646957,21.612532)"
     style="fill:#1a1a1a;fill-opacity:1;stroke:#000000;stroke-width:4.4000001;stroke-miterlimit:4;stroke-dasharray:none;stroke-opacity:1"
     id="g3374">
    <g
       transform="matrix(0.49988464,0,0,0.49988464,-37.411065,7.9950011)"
       style="fill:#1a1a1a;stroke-width:8.80200005"
       id="g3376">
      <!-- color: #004794 -->
    </g>
  </g>
  <g
     transform="matrix(1.4705941,0,0,1.4705941,86.138595,-11.502495)"
     style="fill:#ffffff;fill-opacity:1"
     id="g3378">
    <path
       inkscape:connector-curvature="0"
       d="m 37.1,30 c -0.103,0 -0.186,0.152 -0.186,0.34 l 0,0.998 c -1.133,0.185 -2.169,0.657 -3.039,1.334 -0.021,-0.029 -0.029,-0.058 -0.059,-0.086 l -0.77,-0.73 c -0.141,-0.133 -0.311,-0.185 -0.383,-0.117 l -1.277,1.209 c -0.074,0.067 -0.018,0.229 0.123,0.361 l 0.77,0.73 c 0.06,0.057 0.126,0.091 0.188,0.115 -0.568,0.814 -0.959,1.758 -1.123,2.775 l -0.986,0 c -0.198,0 -0.357,0.08 -0.357,0.184 l 0,1.777 c 0,0.101 0.16,0.184 0.357,0.184 l 0.988,0 c 0.164,1.016 0.552,1.959 1.119,2.771 -0.061,0.024 -0.126,0.058 -0.186,0.115 l -0.77,0.73 c -0.141,0.133 -0.197,0.294 -0.123,0.361 l 1.277,1.209 c 0.072,0.067 0.242,0.015 0.383,-0.117 l 0.77,-0.73 c 0.029,-0.028 0.037,-0.057 0.059,-0.086 0.87,0.677 1.908,1.141 3.039,1.326 l 0,1.01 c 0,0.187 0.082,0.34 0.186,0.34 l 1.801,0 c 0.103,0 0.186,-0.152 0.186,-0.34 l 0,-1.01 c 1.131,-0.185 2.169,-0.65 3.039,-1.326 0.021,0.029 0.029,0.058 0.059,0.086 l 0.77,0.73 c 0.141,0.133 0.311,0.185 0.383,0.117 l 1.277,-1.209 c 0.074,-0.067 0.018,-0.229 -0.123,-0.361 l -0.77,-0.73 c -0.059,-0.057 -0.124,-0.091 -0.186,-0.115 0.567,-0.813 0.955,-1.755 1.119,-2.771 l 0.988,0 C 45.841,39.074 46,38.991 46,38.89 l 0,-1.777 c 0,-0.103 -0.16,-0.184 -0.357,-0.184 l -0.988,0 c -0.165,-1.017 -0.565,-1.953 -1.133,-2.766 0.065,-0.023 0.135,-0.064 0.199,-0.125 l 0.77,-0.73 c 0.141,-0.133 0.197,-0.294 0.123,-0.361 l -1.277,-1.209 c -0.072,-0.067 -0.242,-0.015 -0.383,0.117 l -0.77,0.73 c -0.035,0.033 -0.045,0.067 -0.068,0.102 -0.869,-0.675 -1.899,-1.151 -3.03,-1.336 l 0,-1.012 c 0,-0.187 -0.082,-0.34 -0.186,-0.34 l -1.801,0 z m 0.689,3.918 0.006,0 0.004,0 c -0.012,10e-4 0.057,0.002 0.201,0.002 2.271,0 4.084,1.811 4.084,4.082 0,2.271 -1.813,4.082 -4.084,4.082 -2.271,0 -4.084,-1.811 -4.084,-4.082 0,-2.199 1.709,-3.974 3.873,-4.084 z M 38,36.596 c -0.819,0 -1.484,0.629 -1.484,1.406 0,0.775 0.665,1.404 1.484,1.404 0.819,0 1.484,-0.63 1.484,-1.404 0,-0.777 -0.665,-1.406 -1.484,-1.406 z"
       transform="translate(-62.304688,4.054688)"
       mix-blend-mode="normal"
       isolation="auto"
       white-space="normal"
       style="color:#000000;white-space:normal;display:inline;visibility:visible;opacity:1;isolation:auto;mix-blend-mode:normal;color-interpolation:sRGB;color-interpolation-filters:linearRGB;solid-color:#000000;solid-opacity:1;fill:#ffffff;fill-rule:nonzero;stroke:none;color-rendering:auto;image-rendering:auto;shape-rendering:auto"
       id="path3380" />
  </g>
  <g
     transform="matrix(0.37455729,0,0,-0.37455729,10.206879,5.7279506)"
     id="g470"
     style="fill:#ff6600">
    <path
       inkscape:connector-curvature="0"
       id="path472"
       style="fill:#ff6600;fill-opacity:1;fill-rule:nonzero;stroke:none"
       d="M -3.3214548e-8,-46.848261 C 10.16,-50.601261 19.958,-54.219261 29.755,-57.838261 c 2.988,-1.104 5.956,-2.267 8.971,-3.292 1.386,-0.471 1.719,-0.85 0.657,-2.142 -7.572,-9.201 -20.647,-10.394 -29.6980001,-2.592 C 3.99,-60.955261 1.336,-54.465261 -3.3214546e-8,-46.848261" />
  </g>
  <path
     d="m 45.500997,23.550308 c -0.538613,4.319393 -3.32794,8.048484 -7.536839,8.681488 -2.839519,0.426995 -5.142298,-0.615399 -7.012087,-2.7294 -0.264813,-0.299645 -0.380551,-0.498908 0.132219,-0.686938 4.721294,-1.728581 9.435471,-3.476267 14.151895,-5.216833 0.06593,-0.02435 0.140453,-0.02622 0.264812,-0.04832"
     style="fill:#ff6600;fill-opacity:1;fill-rule:nonzero;stroke:none"
     id="path476"
     inkscape:connector-curvature="0" />
</svg>
